<svg width="16" height="16" viewBox="0 0 16 16" fill="none" xmlns="http://www.w3.org/2000/svg">
<path opacity="0.5" fill-rule="evenodd" clip-rule="evenodd" d="M8 0C3.58172 0 0 3.58172 0 8C0 12.4183 3.58172 16 8 16C12.4183 16 16 12.4183 16 8C16 3.58172 12.4183 0 8 0ZM8.86875 13.3193V11.1053C8.86875 10.8773 8.75475 10.7633 8.52675 10.7633H6.92475C6.68475 10.7633 6.56475 10.8833 6.56475 11.1233V13.3013C6.56475 13.5653 6.68475 13.6973 6.92475 13.6973H8.52675C8.75475 13.6973 8.86875 13.5713 8.86875 13.3193ZM8.85075 9.21533V8.74733C8.85075 8.45933 9.00675 8.17133 9.31875 7.88333L10.5427 6.89333C11.0827 6.42533 11.3527 5.89733 11.3527 5.30933V5.05733C11.3527 4.12133 11.0947 3.40133 10.5787 2.89733C10.0627 2.39333 9.33075 2.14133 8.38275 2.14133H7.32075C6.37275 2.14133 5.64075 2.39333 5.12475 2.89733C4.60875 3.40133 4.35075 4.12133 4.35075 5.05733V5.47133C4.35075 5.73533 4.47675 5.86733 4.72875 5.86733H6.25875C6.51075 5.86733 6.63675 5.73533 6.63675 5.47133V5.09333C6.63675 4.70933 6.71475 4.43933 6.87075 4.28333C7.03875 4.12733 7.30875 4.04933 7.68075 4.04933H8.00475C8.40075 4.04933 8.68275 4.13333 8.85075 4.30133C9.03075 4.45733 9.12075 4.72133 9.12075 5.09333V5.20133C9.12075 5.56133 8.92875 5.89133 8.54475 6.19133L7.53675 7.01933C7.22475 7.27133 7.00275 7.52333 6.87075 7.77533C6.73875 8.01533 6.67275 8.33333 6.67275 8.72933V9.21533C6.67275 9.46733 6.79875 9.59333 7.05075 9.59333H8.47275C8.72475 9.59333 8.85075 9.46733 8.85075 9.21533Z" fill="white"/>
</svg>
