<svg width="16" height="16" viewBox="0 0 16 16" fill="none" xmlns="http://www.w3.org/2000/svg">
<g opacity="0.5" clip-path="url(#clip0_0_24)">
<path d="M7 0H9V8H7V0ZM11 0.59375L11.0469 0.609375C11.776 0.911458 12.4427 1.3099 13.0469 1.80469C13.651 2.29948 14.1719 2.86719 14.6094 3.50781C15.0469 4.14844 15.388 4.84896 15.6328 5.60938C15.8776 6.36979 16 7.16667 16 8C16 9.10417 15.7917 10.1432 15.375 11.1172C14.9583 12.0911 14.388 12.9401 13.6641 13.6641C12.9401 14.388 12.0911 14.9583 11.1172 15.375C10.1432 15.7917 9.10417 16 8 16C6.89583 16 5.85677 15.7917 4.88281 15.375C3.90885 14.9583 3.0599 14.388 2.33594 13.6641C1.61198 12.9401 1.04167 12.0911 0.625 11.1172C0.208333 10.1432 0 9.10417 0 8C0 7.16667 0.122396 6.36979 0.367188 5.60938C0.611979 4.84896 0.953125 4.14844 1.39062 3.50781C1.82812 2.86719 2.35417 2.29688 2.96875 1.79688C3.58333 1.29688 4.26042 0.895833 5 0.59375L4.96875 2.82812C4.53125 3.08854 4.1276 3.40104 3.75781 3.76562C3.38802 4.13021 3.07292 4.53385 2.8125 4.97656C2.55208 5.41927 2.35156 5.89583 2.21094 6.40625C2.07031 6.91667 2 7.44792 2 8C2 8.83333 2.15625 9.61458 2.46875 10.3438C2.78125 11.0729 3.21094 11.7083 3.75781 12.25C4.30469 12.7917 4.9401 13.2188 5.66406 13.5312C6.38802 13.8438 7.16667 14 8 14C8.83333 14 9.61198 13.8438 10.3359 13.5312C11.0599 13.2188 11.6953 12.7917 12.2422 12.25C12.7891 11.7083 13.2188 11.0729 13.5312 10.3438C13.8438 9.61458 14 8.83333 14 8C14 7.44792 13.9297 6.91667 13.7891 6.40625C13.6484 5.89583 13.4453 5.41927 13.1797 4.97656C12.9141 4.53385 12.5964 4.1276 12.2266 3.75781C11.8568 3.38802 11.4479 3.07292 11 2.8125V0.59375Z" fill="white"/>
</g>
<defs>
<clipPath id="clip0_0_24">
<rect width="16" height="16" fill="white"/>
</clipPath>
</defs>
</svg>
